PathFileType	4	(X/Y/Z)	1H_nor_fast_right.trc
DataRate	CameraRate	NumFrames	NumMarkers	Units	OrigDataRate	OrigDataStartFrame	OrigNumFrames
250.00	250.00	17	18	mm	250.00	5771	9233
Frame#	Time	c7	r_should	r_elb_m	clavicle	r_upa	r_wri_m	l_upa	l_elb_l	l_low	l_wri_l	l_met	l_elb_m	r_elb_l	l_should	r_low	r_wri_l	r_met	l_wri_m
	X1	Y1	Z1	X2	Y2	Z2	X3	Y3	Z3	X4	Y4	Z4	X5	Y5	Z5	X6	Y6	Z6	X7	Y7	Z7	X8	Y8	Z8	X9	Y9	Z9	X10	Y10	Z10	X11	Y11	Z11	X12	Y12	Z12	X13	Y13	Z13	X14	Y14	Z14	X15	Y15	Z15	X16	Y16	Z16	X17	Y17	Z17	X18	Y18	Z18
5771	23.08000	1082.13025	1430.13660	105.52342	1148.41772	1363.04932	266.65054	1147.88147	1034.72961	336.03864	1193.07068	1293.37415	93.72686	1213.26050	1160.32385	317.24255	1240.19836	813.42352	378.96097	1088.41589	1149.79968	-125.72849	1094.49243	1042.72070	-144.34959	1105.27454	919.87366	-138.42633	1130.01587	804.22473	-115.07948	1118.85364	727.81836	-160.61075	1051.31177	1029.85229	-52.31668	1236.07117	1071.92773	334.29150	1095.16724	1362.43286	-64.76350	1258.96948	940.24408	323.75961	1274.15051	815.73285	311.97003	1322.31689	765.02576	339.84534	1052.51953	795.61334	-118.60730
5772	23.08400	1082.18091	1430.12866	105.54403	1148.45654	1363.01733	266.71896	1147.73926	1034.62122	335.76935	1193.12695	1293.35925	93.81406	1213.25330	1160.16980	317.02402	1239.79138	813.32031	379.78882	1088.55396	1149.83130	-125.74763	1094.59497	1042.74744	-144.38914	1105.29285	919.88910	-138.48845	1130.22607	803.98932	-114.86215	1118.84229	727.63458	-160.52505	1051.40527	1029.89966	-52.34122	1236.02637	1071.70032	334.05655	1095.34619	1362.45703	-64.75347	1258.73755	939.92743	323.99149	1273.71472	815.26703	312.74988	1321.82568	764.60254	340.85516	1052.45740	795.65955	-118.69282
5773	23.08800	1082.22949	1430.12219	105.57280	1148.48816	1362.98889	266.79117	1147.59302	1034.51807	335.55240	1193.18262	1293.33691	93.90077	1213.22339	1160.01160	316.83960	1239.40662	813.22473	380.57660	1088.68835	1149.86499	-125.78004	1094.69238	1042.76831	-144.43088	1105.31873	919.90472	-138.55502	1130.01379	804.13196	-115.15665	1118.75879	727.59131	-160.58203	1051.50146	1029.94214	-52.36384	1235.97363	1071.49438	333.88760	1095.27844	1362.77502	-64.91135	1258.49121	939.62067	324.23801	1273.30115	814.83588	313.53256	1321.34351	764.21497	341.81351	1052.40320	795.71405	-118.77818
5774	23.09200	1082.28015	1430.11438	105.60190	1148.51184	1362.96265	266.86526	1147.43542	1034.42761	335.38950	1193.23486	1293.31409	93.98488	1213.49634	1159.48950	316.96396	1239.02991	813.17877	381.34119	1088.82092	1149.89526	-125.80310	1094.78674	1042.79639	-144.47862	1105.34973	919.91663	-138.60927	1130.15564	803.94800	-115.01519	1118.65869	727.58270	-160.66765	1051.60046	1029.99402	-52.38646	1235.89844	1071.31689	333.76901	1094.90161	1363.46008	-65.28683	1258.24438	939.34442	324.50629	1272.91467	814.45374	314.29681	1320.87415	763.86139	342.72968	1052.35217	795.77014	-118.86024
5775	23.09600	1082.33203	1430.11072	105.62689	1148.52246	1362.93884	266.93387	1147.26990	1034.34790	335.26968	1193.28406	1293.30090	94.06688	1213.83984	1158.88232	317.18707	1238.65833	813.14996	382.07211	1088.94971	1149.92749	-125.83154	1094.88684	1042.81970	-144.52357	1105.38696	919.93250	-138.65218	1129.70752	804.30621	-115.59515	1118.56152	727.58502	-160.75861	1051.70483	1030.03601	-52.41568	1235.81274	1071.15894	333.68851	1094.95239	1363.64417	-65.37450	1258.01367	939.11646	324.78940	1272.52319	814.09113	315.00311	1320.43677	763.54468	343.62085	1052.30188	795.81567	-118.95214
5776	23.10000	1082.38708	1430.11340	105.64368	1148.51306	1362.91528	266.99814	1147.10718	1034.28394	335.18726	1193.33630	1293.29041	94.15791	1213.22864	1159.42810	316.66010	1238.29822	813.12067	382.77649	1089.07373	1149.95984	-125.86981	1094.99072	1042.84314	-144.56848	1105.42297	919.94690	-138.69637	1129.57117	804.38361	-115.78555	1118.47253	727.59058	-160.84570	1051.79370	1030.07593	-52.43501	1235.71960	1071.03223	333.64719	1095.11194	1363.70276	-65.39507	1257.78748	938.90601	325.07697	1272.14990	813.78534	315.68051	1320.02612	763.25763	344.47653	1052.25366	795.86780	-119.03497
5777	23.10400	1082.43530	1430.11597	105.66100	1148.48621	1362.89160	267.06006	1146.94519	1034.23547	335.14639	1193.38708	1293.28320	94.24461	1213.00720	1159.50598	316.51398	1237.96851	813.12408	383.46552	1089.19141	1149.99255	-125.90314	1095.09180	1042.86438	-144.59666	1105.46460	919.95813	-138.74323	1129.74133	804.18799	-115.60664	1118.38892	727.59479	-160.93004	1051.88184	1030.11487	-52.46204	1235.61316	1070.92908	333.63568	1095.30334	1363.72803	-65.39786	1257.57288	938.71704	325.36014	1271.79407	813.52759	316.33676	1319.62830	763.00305	345.27362	1052.21448	795.90991	-119.10316
5778	23.10800	1082.47998	1430.12280	105.67197	1148.44348	1362.87305	267.12631	1146.77539	1034.19775	335.13797	1193.43872	1293.28638	94.33820	1212.87048	1159.47729	316.48535	1237.67920	813.13666	384.12231	1089.31067	1150.02417	-125.93219	1095.19250	1042.88940	-144.62393	1105.50574	919.97314	-138.79843	1130.22095	803.72400	-115.04731	1118.30811	727.60339	-161.01456	1051.96777	1030.14807	-52.49504	1235.49414	1070.85059	333.65842	1095.50012	1363.74780	-65.39623	1257.37061	938.57098	325.64389	1271.44373	813.28284	316.95096	1319.24609	762.78491	346.00751	1052.17224	795.95062	-119.16581
5779	23.11200	1082.52051	1430.13440	105.67733	1148.38428	1362.86023	267.18686	1146.60132	1034.17432	335.16629	1193.49121	1293.29395	94.43133	1212.74377	1159.44141	316.51221	1237.41370	813.16791	384.74500	1089.43213	1150.05530	-125.96493	1095.29309	1042.91296	-144.65376	1105.54944	919.99158	-138.83569	1130.32373	803.60504	-114.94243	1118.23206	727.61694	-161.09651	1052.04578	1030.17761	-52.52322	1235.37073	1070.78906	333.71176	1095.69995	1363.76453	-65.39562	1257.16125	938.45740	325.94571	1271.11816	813.08643	317.53775	1318.89172	762.59729	346.70709	1052.13574	795.99542	-119.23698
5780	23.11600	1082.55823	1430.14392	105.67863	1148.30981	1362.84961	267.24933	1146.42627	1034.16187	335.21780	1193.54150	1293.30115	94.52400	1212.61365	1159.41418	316.57599	1237.15137	813.20831	385.33377	1089.55786	1150.08655	-125.99751	1095.40222	1042.92249	-144.67688	1105.60461	919.99817	-138.85561	1130.33167	803.57916	-114.96394	1118.16431	727.62299	-161.16850	1052.12256	1030.20276	-52.54245	1235.23779	1070.75061	333.80002	1095.89978	1363.77710	-65.39214	1256.95520	938.36096	326.25018	1270.82263	812.93549	318.10904	1318.55859	762.44415	347.37952	1052.10596	796.03821	-119.30427
5781	23.12000	1082.59326	1430.15051	105.67774	1148.22449	1362.84680	267.31433	1146.25208	1034.15649	335.29507	1193.58569	1293.30090	94.61547	1212.47998	1159.40161	316.67780	1236.89185	813.24005	385.88022	1089.69238	1150.10876	-126.02766	1095.51624	1042.93628	-144.70229	1105.66431	920.01288	-138.88506	1130.32410	803.56464	-114.99962	1118.10132	727.62531	-161.23567	1052.19336	1030.22778	-52.56318	1235.09497	1070.73010	333.93265	1096.35559	1363.49194	-65.21982	1256.74768	938.28772	326.57422	1270.53406	812.81134	318.66711	1318.24207	762.31873	348.00760	1052.08228	796.07349	-119.36333
5782	23.12400	1082.62500	1430.15308	105.67746	1148.13403	1362.84180	267.37350	1146.07043	1034.16797	335.40408	1193.62512	1293.30127	94.70686	1212.33081	1159.40112	316.81439	1236.63086	813.29651	386.42529	1089.83557	1150.12524	-126.04965	1095.78015	1043.10718	-144.68744	1105.73059	920.02148	-138.90924	1130.30786	803.54578	-115.04068	1118.04126	727.62335	-161.29485	1052.26331	1030.25647	-52.58452	1234.93823	1070.71753	334.10263	1097.13293	1362.82812	-64.83741	1256.52856	938.22906	326.90460	1270.24597	812.70764	319.19073	1317.93530	762.21228	348.59360	1052.06116	796.09943	-119.42808
5783	23.12800	1082.64905	1430.15686	105.67554	1148.03101	1362.83643	267.43472	1145.87195	1034.19226	335.55307	1193.66199	1293.30054	94.79887	1212.17249	1159.40857	316.99124	1236.38989	813.37891	386.96509	1089.98938	1150.14124	-126.06235	1096.09119	1043.31470	-144.66301	1105.80469	920.02271	-138.92036	1130.28735	803.53125	-115.08157	1117.99146	727.61877	-161.35316	1052.34021	1030.28125	-52.61113	1234.76526	1070.71606	334.31192	1097.47034	1362.66577	-64.73785	1256.31360	938.18713	327.24362	1269.96680	812.63086	319.67331	1317.63452	762.12909	349.12912	1052.04614	796.12756	-119.49889
5784	23.13200	1082.66614	1430.15442	105.68682	1147.92224	1362.83398	267.49841	1145.67664	1034.22839	335.72681	1193.69202	1293.29089	94.89729	1211.99805	1159.41663	317.19443	1236.17896	813.47131	387.48257	1090.15356	1150.14990	-126.07479	1096.00586	1043.03760	-144.71593	1105.88696	920.02631	-138.94470	1130.27295	803.50037	-115.11131	1117.94800	727.60272	-161.40134	1052.42212	1030.29846	-52.63556	1234.58289	1070.71851	334.53287	1097.69482	1362.63110	-64.71136	1256.10437	938.16748	327.58313	1269.69250	812.57764	320.15161	1317.34900	762.08124	349.62354	1052.04041	796.16113	-119.57478
5785	23.13600	1082.67993	1430.15100	105.70139	1147.80566	1362.83276	267.57108	1145.49084	1034.27600	335.92462	1193.71667	1293.27881	95.00078	1212.13342	1159.04541	317.69220	1235.98621	813.57928	387.95471	1090.33252	1150.16003	-126.08306	1096.09888	1042.97131	-144.72610	1105.97620	920.02356	-138.97002	1130.25977	803.46222	-115.13635	1117.90869	727.58124	-161.44576	1052.50806	1030.31775	-52.65220	1234.38611	1070.73706	334.78659	1097.88940	1362.62683	-64.70321	1255.89136	938.17285	327.91525	1269.41797	812.56482	320.62430	1317.07385	762.06244	350.08566	1052.03870	796.19110	-119.64869
5786	23.14000	1082.68872	1430.14624	105.71790	1147.67798	1362.83777	267.65219	1145.30615	1034.32275	336.15524	1193.73828	1293.26636	95.10603	1212.33984	1158.57935	318.29074	1235.79529	813.67786	388.39188	1090.52588	1150.17188	-126.08170	1096.24634	1042.94690	-144.72137	1106.06812	920.02869	-138.98151	1130.24731	803.42352	-115.15316	1117.87537	727.56165	-161.48607	1052.59216	1030.34521	-52.67276	1234.17493	1070.78210	335.06970	1098.06689	1362.63013	-64.69117	1255.67065	938.19299	328.25409	1269.14099	812.56635	321.04568	1316.82129	762.07562	350.51935	1052.04456	796.22418	-119.71641
5787	23.14400	1082.69421	1430.14270	105.73956	1147.54041	1362.84583	267.73141	1145.10803	1034.38440	336.42859	1193.75208	1293.25574	95.21280	1211.58191	1159.28174	318.10846	1235.59741	813.76721	388.79544	1090.72522	1150.17432	-126.07018	1096.40491	1042.94629	-144.71637	1106.16528	920.01801	-138.96838	1130.24207	803.38989	-115.16950	1117.85266	727.53888	-161.51978	1052.68298	1030.35950	-52.68601	1233.96143	1070.84216	335.37018	1098.23889	1362.62927	-64.67461	1255.43225	938.24432	328.62347	1268.87537	812.59143	321.44171	1316.58850	762.11938	350.92221	1052.05969	796.24774	-119.77749
